<?xml version="1.0" standalone="no"?>
<!DOCTYPE svg PUBLIC "-//W3C//DTD SVG 20010904//EN"
 "http://www.w3.org/TR/2001/REC-SVG-20010904/DTD/svg10.dtd">
<svg version="1.0" xmlns="http://www.w3.org/2000/svg"
 width="900.000000pt" height="990.000000pt" viewBox="0 0 900.000000 990.000000"
 preserveAspectRatio="xMidYMid meet">
<metadata>
Created by potrace 1.10, written by Peter Selinger 2001-2011
</metadata>
<g transform="translate(0.000000,990.000000) scale(0.100000,-0.100000)"
fill="#ffffff" stroke="none">
<path d="M2905 9885 c-6 -9 -38 -19 -80 -25 -86 -12 -227 -49 -324 -85 -354
-130 -711 -431 -912 -770 -83 -140 -163 -336 -199 -490 -44 -187 -44 -189 -50
-1005 l-5 -785 -25 3 c-14 2 -86 5 -160 8 -138 6 -245 -8 -383 -51 -47 -14
-210 -90 -252 -117 -127 -83 -275 -230 -353 -353 -10 -17 -55 -106 -97 -195
-13 -29 -38 -120 -54 -198 -15 -75 -15 -2153 0 -2219 40 -176 88 -291 174
-418 103 -153 241 -276 410 -367 165 -88 299 -119 550 -127 l190 -6 5 -1265
c6 -1404 0 -1300 72 -1366 59 -54 56 -54 519 -54 l430 0 56 27 c52 26 105 78
132 131 12 23 34 94 50 162 5 19 25 98 46 175 20 77 41 156 45 175 4 19 24 96
44 170 21 74 39 146 42 160 3 14 11 48 19 75 18 61 64 237 75 285 4 19 25 98
45 175 21 77 41 156 45 175 4 19 25 98 45 175 21 77 41 156 46 175 18 76 60
237 71 270 6 19 15 51 19 70 17 82 69 274 77 282 4 4 579 7 1277 6 l1269 -3
23 -90 c34 -134 53 -204 68 -260 8 -27 23 -86 34 -130 10 -44 29 -116 41 -160
13 -44 26 -96 30 -115 4 -19 18 -71 30 -115 12 -44 26 -96 30 -115 4 -19 25
-98 45 -175 21 -77 41 -156 45 -175 5 -19 18 -71 30 -115 12 -44 26 -99 31
-123 5 -24 12 -48 15 -54 4 -6 11 -28 14 -47 4 -20 24 -99 45 -176 20 -77 41
-156 45 -175 4 -19 25 -98 45 -175 21 -77 41 -156 46 -175 40 -171 72 -223
174 -281 l50 -29 438 0 c386 0 442 2 470 16 42 22 85 69 108 119 18 38 19 94
19 1298 l0 1257 168 0 c170 0 280 15 402 54 194 63 345 163 487 321 99 110
134 165 218 345 14 31 42 132 50 183 3 21 13 41 21 44 21 8 21 2153 0 2153
-10 0 -17 16 -21 48 -7 49 -37 157 -53 189 -5 10 -24 50 -43 88 -47 98 -88
158 -172 250 -109 122 -214 200 -354 267 -172 81 -326 112 -513 105 -74 -4
-146 -7 -160 -9 l-25 -3 -5 785 c-4 576 -9 801 -18 845 -7 33 -20 94 -28 135
-72 348 -283 701 -569 953 -250 221 -603 387 -897 422 -40 4 -58 11 -58 21 0
22 -3150 21 -3165 -1z m3140 -461 c136 -24 193 -41 325 -94 279 -113 544 -366
683 -651 59 -121 84 -203 118 -374 18 -94 19 -149 19 -943 l0 -842 -27 -23
c-184 -153 -308 -336 -374 -551 -40 -131 -42 -156 -48 -581 l-6 -420 -2245 0
-2245 0 -5 415 c-5 343 -9 427 -23 485 -47 193 -100 308 -211 455 -54 72 -146
166 -189 194 l-27 18 0 846 c0 905 -1 874 50 1082 25 100 42 145 96 252 125
253 346 474 599 602 132 66 177 81 360 120 l110 24 1475 1 c1316 1 1485 -1
1565 -15z m-4780 -3154 c84 -23 138 -42 156 -55 8 -6 31 -19 52 -30 50 -25
186 -162 212 -211 10 -22 24 -45 29 -53 14 -18 33 -70 56 -156 18 -65 20 -107
20 -583 0 -565 -1 -553 63 -621 18 -18 51 -42 75 -52 42 -18 115 -19 2565 -19
2435 0 2523 1 2562 19 22 10 54 34 72 52 64 68 63 56 63 624 0 492 1 518 21
592 115 424 569 633 954 441 147 -73 275 -214 327 -358 50 -138 48 -90 48
-1145 0 -1055 2 -1007 -48 -1145 -58 -161 -219 -323 -382 -382 -138 -51 101
-48 -3621 -48 -3363 0 -3456 1 -3524 19 -38 11 -86 25 -105 32 -148 53 -316
224 -372 379 -50 138 -48 90 -48 1142 0 934 1 986 19 1053 42 153 83 226 181
325 99 98 186 145 350 189 62 16 200 12 275 -9z m1478 -3600 c-1 -8 -12 -51
-23 -95 -12 -44 -26 -96 -31 -115 -4 -19 -24 -96 -44 -170 -20 -74 -40 -153
-45 -175 -5 -22 -25 -101 -45 -175 -21 -74 -40 -151 -44 -170 -4 -19 -13 -51
-19 -70 -13 -39 -60 -225 -71 -280 -4 -19 -13 -51 -19 -70 -6 -19 -18 -64 -27
-100 -9 -36 -22 -87 -30 -115 -8 -27 -17 -61 -20 -75 -3 -14 -22 -86 -41 -160
-20 -74 -40 -151 -44 -170 -23 -101 -71 -275 -78 -282 -5 -5 -89 -7 -188 -6
l-179 3 -3 1110 c-1 611 0 1116 3 1123 3 10 104 12 477 10 414 -3 473 -5 471
-18z m4442 -1105 l0 -1120 -179 -3 c-114 -1 -183 1 -190 8 -9 9 -49 151 -75
265 -5 22 -26 103 -46 180 -21 77 -41 156 -45 175 -5 19 -18 71 -30 115 -12
44 -25 96 -29 116 -4 19 -11 41 -15 47 -3 6 -10 30 -15 54 -5 24 -25 106 -46
183 -20 77 -41 156 -45 175 -4 19 -24 96 -45 170 -20 74 -40 153 -45 175 -5
22 -14 58 -20 80 -24 85 -62 232 -70 270 -5 22 -20 80 -34 129 -14 49 -23 93
-20 98 3 4 218 7 477 6 l472 -3 0 -1120z"/>
</g>
</svg>
