<?xml version="1.0" standalone="no"?>
<!DOCTYPE svg PUBLIC "-//W3C//DTD SVG 20010904//EN"
 "http://www.w3.org/TR/2001/REC-SVG-20010904/DTD/svg10.dtd">
<svg version="1.0" xmlns="http://www.w3.org/2000/svg"
 width="900.000000pt" height="804.000000pt" viewBox="0 0 900.000000 804.000000"
 preserveAspectRatio="xMidYMid meet">
<metadata>
Created by potrace 1.10, written by Peter Selinger 2001-2011
</metadata>
<g transform="translate(0.000000,804.000000) scale(0.100000,-0.100000)"
fill="#ffffff" stroke="none">
<path d="M2735 7831 c-93 -31 -198 -94 -260 -156 -61 -61 -123 -163 -157 -258
-21 -59 -22 -80 -26 -448 l-4 -386 25 -29 25 -29 143 -3 c193 -5 223 0 249 42
19 32 20 48 20 339 0 295 1 308 22 348 12 23 36 56 53 74 18 17 51 41 74 53
l42 22 2625 0 2625 0 41 -21 c62 -32 120 -98 141 -161 16 -51 17 -168 17
-1850 l0 -1796 -21 -55 c-23 -60 -61 -104 -123 -146 l-40 -26 -2250 -5 c-1238
-3 -2252 -6 -2253 -8 -1 -1 -14 -14 -28 -29 -25 -27 -25 -30 -25 -191 0 -170
6 -198 48 -219 9 -4 320 -10 690 -13 l674 -5 19 -24 c17 -21 19 -41 19 -178 0
-149 -1 -155 -24 -178 -26 -26 -83 -45 -134 -45 -31 0 -77 -9 -227 -47 -113
-28 -284 -93 -316 -120 -8 -7 -20 -13 -25 -13 -5 0 -31 -19 -57 -42 -191 -163
-100 -314 273 -453 127 -47 371 -94 630 -121 176 -18 606 -15 765 5 274 36
462 75 563 117 18 8 40 14 50 14 9 0 26 7 36 15 11 8 25 15 32 15 29 0 143 77
197 132 54 57 57 62 57 111 0 120 -117 214 -390 312 -69 25 -239 63 -340 76
-145 20 -151 29 -148 236 3 131 6 155 21 170 17 17 81 18 1135 24 744 4 1132
9 1162 16 211 51 375 197 457 406 l28 72 0 1995 c0 1910 -1 1997 -18 2045 -75
204 -209 340 -402 410 l-68 25 -2786 -1 c-2571 -1 -2790 -2 -2836 -18z"/>
<path d="M365 6021 c-82 -15 -162 -76 -210 -161 -20 -35 -20 -62 -20 -2780 l0
-2745 23 -42 c28 -50 86 -104 141 -133 40 -20 51 -20 1346 -20 1224 0 1307 1
1338 17 60 33 97 64 125 106 61 91 57 -120 60 2782 3 2964 8 2742 -65 2852
-33 50 -52 67 -123 108 -35 20 -49 20 -1305 21 -698 1 -1288 -1 -1310 -5z
m2416 -511 c46 -25 49 -50 49 -375 0 -347 -2 -357 -71 -375 -24 -7 -433 -9
-1143 -8 l-1105 3 -23 23 c-23 22 -23 24 -26 353 l-3 330 30 29 29 30 1122 0
c750 0 1128 -3 1141 -10z m-20 -1162 c67 -20 69 -28 69 -384 l0 -312 -26 -31
-26 -31 -1133 0 c-1100 0 -1133 1 -1156 19 l-24 19 -3 323 c-2 218 1 332 8
349 25 61 -30 59 1164 59 799 1 1099 -2 1127 -11z m-1032 -2274 c172 -42 298
-164 337 -324 78 -324 -215 -616 -536 -534 -166 42 -281 161 -324 335 -21 84
-20 110 3 195 45 168 154 278 321 325 82 22 117 23 199 3z"/>
</g>
</svg>
