<?xml version="1.0" standalone="no"?>
<!DOCTYPE svg PUBLIC "-//W3C//DTD SVG 20010904//EN"
 "http://www.w3.org/TR/2001/REC-SVG-20010904/DTD/svg10.dtd">
<svg version="1.0" xmlns="http://www.w3.org/2000/svg"
 width="900.000000pt" height="687.000000pt" viewBox="0 0 900.000000 687.000000"
 preserveAspectRatio="xMidYMid meet">
<metadata>
Created by potrace 1.10, written by Peter Selinger 2001-2011
</metadata>
<g transform="translate(0.000000,687.000000) scale(0.100000,-0.100000)"
fill="#ffffff" stroke="none">
<path d="M2270 6858 c0 -7 -364 -195 -808 -416 -444 -222 -814 -407 -822 -412
-8 -5 -62 -32 -120 -60 -58 -28 -112 -55 -120 -60 -8 -5 -35 -18 -60 -30 -45
-21 -64 -31 -97 -50 -10 -6 -25 -13 -33 -16 -91 -37 -153 -80 -184 -128 -22
-34 -26 -52 -26 -112 0 -39 6 -82 12 -96 7 -13 71 -111 143 -218 71 -107 134
-203 140 -212 5 -9 33 -50 60 -90 28 -40 52 -77 54 -83 2 -5 17 -26 32 -46 16
-20 29 -40 29 -44 0 -4 14 -24 30 -45 17 -21 30 -41 30 -45 0 -4 14 -24 30
-45 17 -21 30 -41 30 -45 0 -4 13 -24 29 -44 15 -20 30 -41 32 -46 16 -41 468
-701 493 -719 17 -13 53 -31 79 -41 51 -19 61 -18 212 30 22 7 67 21 100 30
33 10 78 24 100 30 22 7 67 21 100 30 33 10 78 24 100 30 22 7 67 21 100 30
33 10 77 24 98 31 20 8 51 14 67 14 l30 0 2 -1912 3 -1913 23 -47 c15 -31 39
-57 69 -77 l46 -31 2217 0 2217 0 46 31 c30 20 54 46 69 77 l23 47 3 1912 2
1913 30 0 c16 0 47 -6 67 -14 21 -7 65 -21 98 -31 33 -9 78 -23 100 -30 22 -6
67 -20 100 -30 33 -9 78 -23 100 -30 22 -6 67 -20 100 -30 33 -9 78 -23 100
-30 151 -48 161 -49 212 -30 26 10 62 28 79 41 25 18 417 589 433 629 2 5 17
26 32 46 16 20 29 40 29 44 0 4 14 24 30 45 17 21 30 41 30 45 0 4 14 24 30
45 17 21 30 41 30 45 0 4 14 24 30 45 17 21 30 41 30 45 0 4 14 24 30 45 16
21 30 41 30 45 0 4 13 24 30 45 16 21 30 40 30 43 0 2 74 115 165 251 91 136
165 251 165 257 0 5 9 14 20 21 17 11 20 24 20 85 0 59 -3 73 -15 73 -9 0 -20
11 -24 24 -11 29 -100 106 -122 106 -9 0 -22 7 -29 15 -7 8 -20 15 -30 15 -10
0 -23 7 -30 15 -7 8 -21 15 -31 15 -10 0 -20 4 -23 9 -4 5 -27 19 -54 31 -26
12 -54 26 -62 31 -8 5 -22 12 -30 15 -8 3 -22 9 -30 14 -8 5 -49 25 -90 45
-41 20 -82 40 -90 45 -8 5 -378 190 -822 412 -444 221 -808 409 -808 416 0 9
-140 12 -665 12 -581 0 -665 -2 -665 -15 0 -8 -11 -17 -24 -21 -14 -3 -37 -20
-53 -37 -45 -51 -63 -100 -63 -173 0 -178 -83 -367 -225 -510 -90 -91 -197
-155 -324 -192 -79 -24 -323 -24 -402 0 -231 68 -419 241 -502 463 -27 75 -47
173 -47 239 0 41 -6 79 -17 103 -22 46 -70 97 -101 107 -12 4 -22 14 -22 22 0
12 -94 14 -665 14 -525 0 -665 -3 -665 -12z m1065 -458 c8 -16 15 -38 15 -49
0 -40 76 -226 121 -296 10 -16 22 -37 26 -45 30 -67 190 -236 298 -316 171
-126 344 -193 567 -219 113 -13 144 -13 258 0 72 8 136 17 142 21 6 4 28 11
47 15 99 21 266 102 373 181 111 82 269 248 302 318 10 22 30 56 42 71 25 33
91 206 104 273 6 27 15 55 21 63 9 10 98 13 472 13 l460 0 571 -286 c314 -157
578 -289 586 -294 8 -5 22 -11 30 -14 8 -3 22 -10 30 -15 8 -5 22 -12 30 -15
8 -3 22 -10 30 -15 8 -5 22 -12 30 -15 8 -3 23 -10 33 -16 31 -18 51 -28 127
-65 41 -20 82 -40 90 -45 8 -5 81 -42 162 -82 149 -74 167 -90 133 -118 -8 -7
-15 -17 -15 -22 0 -6 -14 -27 -30 -48 -16 -21 -30 -41 -30 -45 0 -4 -13 -24
-30 -45 -16 -21 -30 -41 -30 -45 0 -4 -13 -24 -30 -45 -16 -21 -30 -41 -30
-45 0 -4 -13 -24 -29 -44 -15 -20 -30 -40 -32 -46 -2 -5 -26 -43 -54 -83 -27
-41 -54 -81 -60 -90 -5 -9 -22 -33 -36 -52 -14 -19 -28 -40 -30 -45 -2 -6 -89
-137 -192 -293 -136 -203 -194 -282 -208 -282 -10 0 -36 6 -56 14 -21 7 -65
21 -98 31 -33 9 -78 23 -100 30 -22 6 -67 20 -100 30 -33 9 -78 23 -100 30
-22 6 -67 20 -100 30 -131 38 -161 48 -175 55 -12 6 -16 39 -21 166 -3 87 -10
171 -17 186 -6 15 -27 45 -48 67 -79 89 -213 91 -298 5 -24 -23 -47 -59 -54
-82 -9 -30 -12 -552 -12 -2178 0 -1177 -3 -2149 -6 -2161 l-6 -23 -1918 0
-1918 0 -6 23 c-3 12 -6 984 -6 2161 0 1626 -3 2148 -12 2178 -7 23 -30 59
-54 82 -85 86 -219 84 -298 -5 -21 -22 -42 -52 -48 -67 -7 -15 -14 -99 -17
-186 -5 -127 -9 -160 -21 -166 -14 -7 -44 -17 -175 -55 -33 -10 -78 -24 -100
-30 -22 -7 -67 -21 -100 -30 -33 -10 -78 -24 -100 -30 -22 -7 -67 -21 -100
-30 -33 -10 -77 -24 -98 -31 -20 -8 -46 -14 -56 -14 -14 0 -103 126 -328 463
-169 254 -312 470 -318 479 -5 9 -32 50 -60 90 -27 40 -52 78 -54 83 -2 6 -17
26 -32 46 -16 20 -29 41 -29 47 0 5 -7 15 -15 22 -20 17 -19 49 3 57 16 5 260
125 292 143 8 5 49 25 90 45 41 20 82 40 90 45 8 5 22 11 30 14 8 3 22 10 30
15 8 5 22 12 30 15 8 3 22 10 30 15 8 5 22 12 30 15 8 3 22 10 30 15 8 5 22
12 30 15 8 3 22 10 30 15 8 5 22 12 30 16 8 3 260 129 560 280 l545 275 462 0
462 0 16 -30z"/>
</g>
</svg>
