<?xml version="1.0" standalone="no"?>
<!DOCTYPE svg PUBLIC "-//W3C//DTD SVG 20010904//EN"
 "http://www.w3.org/TR/2001/REC-SVG-20010904/DTD/svg10.dtd">
<svg version="1.0" xmlns="http://www.w3.org/2000/svg"
 width="900.000000pt" height="975.000000pt" viewBox="0 0 900.000000 975.000000"
 preserveAspectRatio="xMidYMid meet">
<metadata>
Created by potrace 1.10, written by Peter Selinger 2001-2011
</metadata>
<g transform="translate(0.000000,975.000000) scale(0.100000,-0.100000)"
fill="#ffffff" stroke="none">
<path d="M3150 9736 c0 -9 -16 -17 -42 -21 -42 -6 -169 -51 -238 -83 -109 -52
-290 -208 -331 -285 -79 -147 -89 -187 -89 -335 0 -170 39 -296 145 -470 27
-46 55 -91 60 -100 28 -48 129 -171 243 -296 34 -38 61 -71 58 -73 -5 -5 -81
18 -156 47 -30 12 -68 25 -85 30 -16 4 -86 26 -155 49 -640 209 -1310 341
-1747 345 l-181 1 -43 -30 c-60 -42 -88 -96 -89 -168 0 -72 24 -123 80 -167
l41 -33 237 -18 c130 -9 271 -22 312 -29 206 -31 368 -60 460 -82 25 -6 63
-14 85 -18 38 -7 58 -12 200 -47 86 -21 202 -53 325 -88 25 -8 72 -21 105 -31
33 -9 75 -23 93 -30 18 -8 39 -14 47 -14 8 0 29 -6 47 -14 40 -16 93 -35 133
-46 17 -5 75 -25 130 -45 55 -20 111 -40 125 -44 14 -5 36 -13 50 -19 14 -5
45 -18 70 -27 25 -10 59 -23 75 -30 17 -7 50 -21 75 -30 25 -10 59 -23 75 -30
55 -24 250 -103 268 -109 72 -23 -74 -26 -1439 -26 -1593 0 -1507 3 -1664 -63
-173 -72 -329 -233 -390 -400 -39 -109 -40 -120 -40 -745 1 -676 0 -663 69
-804 49 -101 120 -186 212 -254 75 -56 110 -75 209 -112 58 -21 86 -24 270
-29 135 -4 207 -9 212 -17 4 -6 8 -957 8 -2113 0 -2049 0 -2104 19 -2180 41
-162 85 -248 193 -375 80 -93 220 -187 348 -233 130 -46 50 -45 2850 -45 2254
0 2647 2 2715 15 137 25 240 70 356 156 122 92 209 204 267 344 67 160 62 -15
62 2313 0 1676 3 2112 13 2120 7 6 132 12 317 15 329 5 336 6 472 71 63 30
173 118 227 181 57 68 135 219 146 283 4 26 12 42 21 42 21 0 21 1235 0 1243
-8 3 -18 23 -22 44 -10 60 -89 213 -141 274 -107 125 -247 211 -404 248 -87
21 -104 21 -1528 21 -1360 0 -1506 3 -1434 26 18 6 213 85 268 109 37 16 177
72 228 91 20 8 55 21 77 29 22 8 58 22 80 30 54 20 108 40 150 54 77 27 338
112 390 127 30 9 75 22 100 30 160 48 327 91 583 148 253 57 535 98 835 120
191 14 192 15 231 46 63 49 86 94 85 167 -1 74 -31 127 -96 170 l-42 28 -185
-2 c-102 -1 -240 -9 -306 -18 -237 -31 -393 -57 -540 -90 -33 -7 -96 -20 -140
-30 -82 -17 -161 -36 -252 -61 -173 -46 -259 -71 -318 -89 -22 -7 -87 -27
-145 -45 -58 -17 -116 -37 -130 -42 -14 -6 -38 -14 -55 -19 -16 -4 -75 -24
-129 -44 -55 -19 -104 -34 -109 -32 -5 1 24 38 63 82 196 217 359 474 407 639
44 153 44 324 -1 444 -54 144 -229 321 -391 395 -22 10 -48 23 -57 28 -28 15
-130 47 -171 54 -21 3 -41 13 -44 21 -7 19 -264 21 -261 2 2 -7 -14 -16 -37
-21 -45 -10 -100 -31 -160 -59 -158 -75 -330 -242 -470 -458 -110 -170 -280
-547 -335 -745 -4 -16 -13 -43 -19 -60 -6 -16 -19 -56 -28 -87 -10 -32 -22
-59 -27 -60 -5 -2 -35 71 -66 162 -58 169 -90 254 -116 303 -8 16 -14 33 -14
39 0 17 -121 257 -180 358 -173 293 -360 479 -570 567 -41 17 -92 34 -113 38
-21 3 -41 13 -44 21 -8 21 -253 21 -253 0z m233 -435 c193 -67 376 -310 537
-716 45 -114 56 -143 76 -205 9 -30 22 -71 29 -90 28 -79 89 -302 120 -435 9
-38 23 -96 31 -127 17 -68 18 -118 4 -118 -10 0 -68 37 -80 51 -3 3 -27 21
-55 39 -48 33 -175 129 -185 140 -3 3 -34 28 -70 55 -175 132 -477 411 -636
585 -46 51 -164 206 -164 215 0 4 -11 21 -24 38 -59 81 -97 187 -98 280 -1 87
16 123 84 181 123 106 304 150 431 107z m2432 0 c121 -38 221 -108 266 -186
34 -58 37 -107 13 -186 -75 -248 -326 -536 -850 -975 -111 -92 -442 -334 -458
-334 -12 0 -16 5 -12 18 3 9 10 37 15 62 15 75 38 172 54 230 8 30 25 91 37
135 12 44 26 94 30 110 4 17 12 41 17 55 16 40 34 92 43 125 25 92 105 289
178 440 133 278 287 454 442 508 62 21 153 20 225 -2z m-1537 -3130 c1 -563
-1 -777 -9 -787 -10 -12 -302 -14 -1785 -14 -1280 0 -1788 3 -1826 11 -73 16
-122 44 -168 97 -83 94 -80 64 -80 682 0 539 0 548 22 596 39 89 90 138 182
176 38 16 169 17 1851 15 l1810 -2 3 -774z m4095 762 c69 -24 156 -110 180
-178 15 -45 17 -101 17 -596 l0 -547 -24 -54 c-40 -91 -118 -154 -214 -176
-67 -15 -3617 -18 -3627 -3 -4 7 -8 1338 -5 1559 0 9 369 12 1811 12 1699 0
1814 -1 1862 -17z m-4099 -1982 c10 -15 7 -4504 -2 -4513 -5 -5 -586 -7 -1293
-6 -1257 3 -1285 3 -1324 23 -111 55 -199 149 -238 255 -16 42 -17 204 -17
2141 0 1153 3 2099 7 2102 10 11 2861 8 2867 -2z m3091 -2111 l0 -2115 -33
-66 c-41 -82 -107 -148 -192 -191 l-65 -33 -1179 -3 c-649 -1 -1183 1 -1188 6
-9 9 -12 4498 -3 4513 4 5 511 8 1333 7 l1327 -3 0 -2115z"/>
</g>
</svg>
