<?xml version="1.0" standalone="no"?>
<!DOCTYPE svg PUBLIC "-//W3C//DTD SVG 20010904//EN"
 "http://www.w3.org/TR/2001/REC-SVG-20010904/DTD/svg10.dtd">
<svg version="1.0" xmlns="http://www.w3.org/2000/svg"
 width="900.000000pt" height="672.000000pt" viewBox="0 0 900.000000 672.000000"
 preserveAspectRatio="xMidYMid meet">
<metadata>
Created by potrace 1.10, written by Peter Selinger 2001-2011
</metadata>
<g transform="translate(0.000000,672.000000) scale(0.100000,-0.100000)"
fill="#ffffff" stroke="none">
<path d="M7550 6602 c-93 -35 -141 -78 -195 -172 -19 -33 -20 -55 -22 -487
l-2 -453 -36 -31 c-19 -17 -48 -41 -63 -53 -15 -11 -165 -136 -333 -276 -169
-140 -337 -280 -374 -310 -37 -30 -75 -62 -85 -70 -10 -8 -75 -62 -145 -120
-70 -58 -254 -210 -409 -339 -154 -128 -301 -250 -325 -270 -24 -20 -63 -52
-86 -71 -92 -77 -110 -90 -120 -87 -6 2 -13 83 -17 213 -18 506 -38 1051 -49
1314 -6 157 -15 407 -19 555 -9 309 -15 341 -85 410 -81 81 80 75 -1921 75
-1568 0 -1787 -2 -1825 -15 -92 -33 -150 -102 -168 -201 -6 -33 -16 -187 -21
-343 -6 -169 -15 -290 -21 -297 -8 -10 -116 -14 -477 -17 -328 -2 -478 -6
-503 -15 -54 -18 -113 -75 -143 -137 l-26 -56 0 -612 c0 -594 1 -613 21 -657
25 -55 59 -92 124 -135 104 -68 171 -110 185 -117 8 -5 49 -30 90 -58 41 -27
84 -54 95 -60 11 -6 54 -32 95 -59 41 -28 106 -69 143 -93 38 -24 79 -50 92
-58 13 -8 54 -34 92 -58 37 -23 78 -50 91 -60 l22 -17 -15 -260 c-45 -803 -46
-822 -45 -1753 0 -887 1 -914 20 -951 25 -51 87 -102 147 -124 45 -16 173 -17
1998 -17 2215 0 2007 -9 2101 86 73 74 81 115 66 343 -9 119 -12 479 -12 1111
0 514 -4 1003 -10 1085 -5 83 -10 187 -10 232 l0 82 51 43 c66 55 120 100 203
168 38 30 235 194 440 364 204 169 391 325 415 345 24 20 63 52 86 71 23 19
113 94 200 165 86 72 243 201 349 289 105 87 200 166 211 175 21 17 115 94
244 202 68 56 77 61 110 55 20 -3 63 -9 96 -12 33 -2 110 -11 170 -19 61 -8
164 -21 230 -29 66 -9 176 -23 245 -32 215 -28 292 -12 385 81 71 71 95 128
95 227 0 125 -17 149 -379 533 -42 44 -121 129 -176 189 -55 60 -132 144 -171
185 -337 363 -334 359 -392 387 -72 35 -166 41 -232 16z m-2783 -927 c7 -132
17 -391 22 -575 5 -184 15 -454 20 -600 26 -653 33 -845 41 -1140 5 -173 14
-416 21 -540 8 -141 12 -566 13 -1135 l1 -910 -1650 0 -1650 0 -3 735 c-2 580
1 782 13 960 8 124 15 272 15 330 0 58 5 159 10 225 6 66 14 226 20 355 10
270 24 547 45 910 9 140 15 287 15 325 0 39 6 189 15 335 33 595 45 828 45
882 0 31 3 63 6 72 6 15 144 16 1498 14 l1491 -3 12 -240z m-3563 -685 c-3
-134 -26 -620 -34 -715 -5 -60 -9 -152 -9 -202 -1 -92 -1 -93 -25 -93 -14 0
-27 4 -30 9 -3 5 -38 28 -77 52 -39 24 -81 51 -94 59 -74 47 -168 106 -183
115 -9 6 -50 32 -89 59 l-73 48 0 352 c0 194 3 356 7 359 4 4 142 6 307 5
l301 -3 -1 -45z"/>
</g>
</svg>
