<?xml version="1.0" standalone="no"?>
<!DOCTYPE svg PUBLIC "-//W3C//DTD SVG 20010904//EN"
 "http://www.w3.org/TR/2001/REC-SVG-20010904/DTD/svg10.dtd">
<svg version="1.0" xmlns="http://www.w3.org/2000/svg"
 width="900.000000pt" height="960.000000pt" viewBox="0 0 900.000000 960.000000"
 preserveAspectRatio="xMidYMid meet">
<metadata>
Created by potrace 1.10, written by Peter Selinger 2001-2011
</metadata>
<g transform="translate(0.000000,960.000000) scale(0.100000,-0.100000)"
fill="#ffffff" stroke="none">
<path d="M2187 9586 c-3 -8 -27 -17 -54 -21 -315 -44 -607 -298 -711 -620
-161 -495 125 -1020 633 -1166 68 -19 104 -23 240 -23 138 0 171 3 240 23 289
84 509 286 625 576 36 90 45 155 45 315 0 170 -1 174 -52 315 -58 157 -173
311 -311 416 -105 79 -244 138 -392 166 -26 5 -44 14 -43 21 4 19 -213 17
-220 -2z m192 -552 c79 -20 153 -65 205 -125 46 -54 65 -95 81 -178 32 -160
-46 -320 -197 -402 -61 -33 -66 -34 -173 -33 -91 0 -118 4 -155 21 -99 47
-176 138 -210 245 -25 79 -25 127 0 205 43 137 139 230 275 266 78 20 96 20
174 1z"/>
<path d="M6125 8940 c-197 -25 -247 -34 -465 -91 -133 -35 -168 -45 -275 -84
-55 -20 -114 -41 -132 -46 -18 -5 -35 -14 -38 -19 -4 -6 -13 -10 -22 -10 -9 0
-97 -40 -197 -89 -151 -74 -242 -124 -425 -236 -34 -21 -166 -110 -171 -116
-3 -3 -34 -26 -70 -51 -59 -42 -187 -145 -250 -201 -258 -230 -476 -467 -654
-711 -64 -88 -196 -284 -196 -292 0 -2 -12 -23 -27 -47 -70 -110 -200 -370
-262 -527 -12 -30 -26 -64 -31 -75 -15 -33 -92 -267 -100 -305 -4 -19 -19 -82
-33 -140 -52 -218 -77 -374 -87 -560 -5 -74 -13 -151 -19 -170 -6 -19 -11 -55
-11 -80 0 -25 -6 -106 -14 -180 -9 -74 -22 -214 -31 -310 -8 -96 -20 -224 -26
-285 -5 -60 -12 -139 -15 -175 -2 -36 -11 -130 -19 -210 -8 -80 -21 -221 -30
-315 -8 -93 -20 -222 -26 -285 -6 -63 -14 -152 -18 -198 l-7 -83 -1064 -1064
-1065 -1065 -71 0 c-117 0 -197 -49 -245 -148 -42 -87 -34 -185 22 -267 48
-71 460 -471 503 -489 59 -24 185 -22 233 5 50 28 80 55 112 104 23 36 26 50
27 140 l1 99 259 255 c339 333 1572 1551 1729 1709 78 78 135 126 154 132 17
5 68 11 114 15 252 18 499 38 627 51 80 8 169 14 198 14 29 0 110 6 180 14 70
8 233 22 362 31 129 9 294 23 367 31 73 8 155 14 182 14 30 0 77 10 113 24 48
19 91 26 183 31 193 10 388 45 665 118 60 16 191 60 315 106 227 83 508 228
755 389 89 58 299 213 361 266 125 107 176 153 278 251 238 230 444 487 657
820 108 170 241 443 324 665 50 134 56 152 73 210 9 30 23 78 31 105 14 51 32
124 60 250 22 102 44 274 51 400 8 138 15 182 26 163 5 -8 8 17 8 62 0 47 -3
67 -8 55 -10 -26 -18 28 -26 180 -23 404 -166 836 -390 1175 -224 340 -526
609 -885 789 -36 18 -73 37 -82 42 -40 20 -200 80 -288 107 -187 58 -269 76
-465 102 -193 26 -524 26 -730 0z m1040 -615 c165 -54 310 -121 439 -205 35
-23 67 -49 71 -58 4 -11 -67 -89 -247 -269 -139 -139 -261 -256 -271 -259 -14
-5 -74 49 -263 238 -147 147 -244 251 -244 262 0 12 63 82 160 178 l160 159
47 -7 c26 -4 92 -22 148 -39z m-1417 -166 c62 -62 112 -117 112 -123 0 -14
-491 -506 -505 -506 -16 0 -415 404 -415 420 0 17 35 38 235 139 176 89 390
179 431 180 26 1 47 -15 142 -110z m2383 -566 c54 -83 148 -269 174 -343 15
-43 37 -115 71 -229 l16 -53 -49 -50 c-119 -121 -285 -283 -294 -286 -10 -4
-509 490 -509 504 0 11 522 534 533 534 4 0 30 -35 58 -77z m-1620 -198 c134
-135 246 -250 248 -256 3 -9 -443 -461 -492 -499 -17 -12 -40 8 -268 236 -137
137 -249 255 -249 263 0 20 481 501 501 501 9 0 126 -110 260 -245z m-1784 -7
c128 -128 233 -239 233 -248 0 -9 -112 -127 -249 -264 -215 -214 -251 -246
-267 -238 -31 17 -464 457 -464 471 0 43 456 511 499 511 8 0 120 -104 248
-232z m2691 -898 c133 -133 242 -245 242 -249 0 -4 -115 -121 -255 -261 l-255
-254 -250 249 c-138 138 -250 257 -250 265 0 8 111 126 247 262 196 196 250
245 263 238 9 -5 125 -118 258 -250z m-1799 6 c190 -191 242 -247 237 -262
-10 -31 -481 -494 -502 -494 -23 0 -504 478 -504 500 0 23 482 500 505 500 13
0 106 -86 264 -244z m-1794 -506 c-137 -137 -257 -250 -265 -250 -22 0 -210
191 -210 214 0 71 236 609 298 679 15 17 28 6 221 -187 l206 -206 -250 -250z
m904 -404 l245 -245 -251 -250 c-138 -138 -257 -251 -264 -251 -16 0 -509 490
-509 505 0 6 112 122 249 259 215 214 251 246 267 238 11 -6 129 -121 263
-256z m1783 17 c136 -136 248 -252 248 -258 0 -16 -493 -505 -510 -505 -19 0
-500 480 -500 500 0 16 488 510 504 510 6 0 122 -111 258 -247z m1645 149
c150 -150 138 -125 104 -223 -72 -207 -259 -588 -295 -602 -8 -3 -99 81 -221
203 -180 180 -206 210 -197 226 16 29 486 494 499 494 7 0 56 -44 110 -98z
m-4333 -1052 c228 -228 248 -251 235 -267 -39 -49 -461 -463 -473 -463 -23 0
-147 216 -211 365 -31 73 -85 249 -91 298 l-7 49 134 134 c74 74 141 134 149
134 9 0 128 -112 264 -250z m1791 1 c135 -134 245 -249 245 -255 0 -14 -492
-506 -505 -506 -13 0 -505 492 -505 505 0 16 494 506 508 503 7 -2 123 -113
257 -247z m1787 12 l237 -237 -17 -29 c-24 -41 -301 -322 -400 -406 -46 -39
-91 -71 -100 -71 -24 0 -472 450 -472 475 0 23 476 505 499 505 8 0 122 -107
253 -237z m-2677 -913 l249 -250 -145 -146 -146 -145 -94 26 c-182 51 -206 59
-325 116 -84 40 -230 124 -268 153 -10 8 -16 19 -15 25 8 22 463 471 479 471
8 0 128 -113 265 -250z m1734 58 c138 -137 191 -197 189 -211 -6 -42 -487
-263 -651 -299 l-49 -11 -99 99 c-54 54 -99 105 -99 114 0 20 481 500 501 500
9 0 103 -86 208 -192z m-3328 -190 c107 -167 319 -382 526 -533 45 -33 81 -64
79 -70 -1 -5 -27 -11 -57 -12 -30 -2 -101 -7 -159 -13 -58 -5 -172 -15 -255
-20 -82 -6 -171 -13 -197 -16 l-48 -7 0 64 c0 58 5 125 41 494 10 109 22 165
33 165 2 0 19 -24 37 -52z"/>
</g>
</svg>
