<?xml version="1.0" standalone="no"?>
<!DOCTYPE svg PUBLIC "-//W3C//DTD SVG 20010904//EN"
 "http://www.w3.org/TR/2001/REC-SVG-20010904/DTD/svg10.dtd">
<svg version="1.0" xmlns="http://www.w3.org/2000/svg"
 width="900.000000pt" height="588.000000pt" viewBox="0 0 900.000000 588.000000"
 preserveAspectRatio="xMidYMid meet">
<metadata>
Created by potrace 1.10, written by Peter Selinger 2001-2011
</metadata>
<g transform="translate(0.000000,588.000000) scale(0.100000,-0.100000)"
fill="#ffffff" stroke="none">
<path d="M2340 5764 c-179 -30 -456 -109 -538 -154 -9 -5 -48 -24 -87 -43
-202 -99 -412 -252 -564 -412 -148 -157 -274 -338 -365 -525 -36 -72 -124
-278 -151 -350 -25 -69 -47 -125 -61 -158 -8 -18 -14 -39 -14 -47 0 -8 -6 -29
-14 -47 -8 -18 -29 -80 -46 -138 -72 -236 -91 -305 -134 -477 -8 -32 -21 -85
-29 -118 -9 -33 -23 -96 -32 -140 -10 -44 -23 -107 -30 -140 -27 -123 -52
-262 -89 -505 -73 -476 -85 -1057 -30 -1390 52 -312 124 -517 242 -689 97
-141 230 -249 377 -304 110 -41 151 -47 314 -47 224 0 338 26 621 140 113 46
284 136 435 229 134 82 326 215 464 322 131 101 325 239 336 239 2 0 36 19 77
43 40 24 118 64 173 91 55 26 109 52 119 58 11 6 31 14 45 18 14 5 51 18 81
30 667 259 1433 259 2100 0 30 -12 67 -25 81 -30 14 -4 34 -12 45 -18 10 -6
78 -39 150 -75 73 -36 150 -77 173 -91 22 -14 43 -26 45 -26 11 0 178 -118
347 -245 156 -118 254 -186 419 -291 58 -37 72 -46 107 -65 165 -92 337 -179
356 -179 7 0 17 -4 23 -9 9 -10 40 -22 149 -58 188 -63 296 -83 455 -83 253 0
430 69 590 230 76 76 172 217 189 278 30 105 -41 226 -147 251 -95 23 -180
-18 -246 -119 -39 -59 -113 -138 -156 -165 -116 -73 -309 -75 -527 -5 -55 18
-251 101 -303 128 -96 51 -174 95 -231 130 -32 20 -87 55 -121 76 -35 22 -153
107 -263 190 -183 137 -388 282 -425 299 -8 4 -28 16 -45 27 -28 18 -323 166
-390 195 -99 44 -308 115 -435 149 -36 10 -88 24 -116 32 -28 8 -59 14 -70 14
-10 0 -50 6 -89 14 -197 42 -295 50 -610 50 -316 0 -404 -7 -610 -50 -38 -8
-79 -14 -89 -14 -11 0 -44 -7 -75 -16 -31 -8 -78 -21 -106 -29 -71 -19 -243
-73 -285 -89 -19 -8 -55 -22 -80 -31 -25 -10 -58 -23 -75 -31 -211 -93 -301
-139 -448 -228 -142 -86 -198 -125 -427 -296 -107 -81 -199 -149 -205 -151 -5
-2 -49 -30 -96 -61 -47 -31 -104 -66 -125 -78 -21 -12 -55 -31 -74 -42 -98
-58 -309 -154 -413 -187 -218 -71 -410 -69 -528 5 -283 177 -390 822 -283
1714 31 266 107 693 150 846 8 28 14 59 14 69 0 10 6 41 14 69 8 28 22 80 31
116 16 63 28 108 60 220 33 115 46 159 86 275 22 66 44 134 49 150 4 17 18 55
30 85 12 30 25 66 30 80 25 77 129 298 179 380 11 19 24 42 28 50 14 31 154
207 210 265 85 88 180 166 294 242 52 34 290 153 308 153 5 0 25 6 43 14 32
14 64 22 228 63 109 26 500 26 610 0 199 -48 287 -81 515 -193 94 -46 190 -90
215 -99 313 -109 355 -115 815 -115 398 0 432 3 600 47 86 23 236 73 273 92 9
5 89 43 177 86 88 42 168 81 177 85 35 19 205 70 318 97 111 26 503 26 610 0
151 -37 196 -49 230 -62 75 -28 196 -79 210 -89 8 -6 33 -20 55 -31 96 -48
235 -151 339 -253 123 -119 191 -207 293 -377 41 -69 129 -268 190 -430 8 -22
20 -51 25 -65 6 -14 14 -38 19 -55 4 -16 24 -77 45 -135 20 -58 40 -121 45
-140 4 -19 15 -57 23 -85 30 -98 56 -191 76 -275 11 -47 27 -110 35 -140 69
-271 142 -683 179 -1010 15 -126 33 -444 39 -675 2 -86 6 -105 25 -133 83
-116 219 -132 317 -37 66 64 69 84 61 405 -10 456 -65 859 -203 1485 -8 39
-21 92 -29 119 -8 26 -14 55 -14 63 0 9 -6 36 -14 62 -8 25 -22 72 -30 104
-24 87 -47 168 -61 212 -7 22 -27 87 -45 145 -30 100 -39 123 -76 223 -9 23
-22 59 -30 80 -8 20 -21 56 -30 80 -8 23 -22 55 -30 70 -8 16 -14 33 -14 38 0
11 -127 272 -163 334 -103 182 -284 393 -459 538 -100 83 -229 170 -315 213
-23 11 -48 25 -55 31 -21 16 -227 101 -310 127 -72 23 -176 49 -313 77 -33 6
-159 14 -280 16 -174 4 -243 2 -330 -12 -134 -20 -279 -55 -377 -91 -102 -37
-135 -52 -293 -129 -185 -91 -241 -114 -325 -138 -188 -54 -161 -52 -565 -52
-406 0 -373 -3 -565 52 -84 24 -140 48 -325 138 -201 98 -202 98 -330 139
-109 36 -202 58 -340 81 -117 20 -465 19 -585 -1z"/>
<path d="M6260 4532 c-131 -50 -200 -140 -235 -304 -14 -67 40 -201 107 -264
97 -93 213 -124 329 -87 154 48 249 176 249 334 0 128 -78 248 -198 305 -73
35 -185 42 -252 16z"/>
<path d="M2505 4528 c-47 -17 -104 -66 -123 -107 -15 -31 -18 -83 -22 -391
l-5 -355 -355 -5 c-195 -3 -364 -9 -375 -14 -11 -5 -37 -23 -58 -39 -144 -112
-75 -339 109 -361 33 -4 194 -6 359 -6 165 0 306 1 313 0 9 0 12 -77 12 -353
0 -346 0 -354 23 -397 44 -87 140 -133 236 -111 58 13 104 52 135 113 l26 52
0 348 c0 191 4 348 8 348 4 0 168 1 364 3 l356 2 44 30 c54 38 97 114 98 171
0 82 -64 173 -140 199 -14 5 -182 11 -375 14 l-350 6 -5 355 c-4 315 -7 359
-23 387 -52 96 -160 143 -252 111z"/>
<path d="M5505 3783 c-171 -72 -259 -245 -213 -417 17 -65 77 -146 138 -187
180 -122 418 -53 506 147 34 78 34 189 -1 268 -33 74 -91 136 -162 171 -73 37
-203 46 -268 18z"/>
<path d="M7030 3793 c-81 -29 -200 -117 -200 -148 0 -6 -5 -16 -12 -23 -17
-17 -48 -121 -48 -163 0 -39 22 -117 47 -164 52 -99 180 -176 293 -178 188 -3
350 157 350 345 0 135 -97 271 -230 321 -44 16 -166 22 -200 10z"/>
<path d="M6241 3031 c-54 -22 -144 -99 -166 -143 -48 -94 -59 -165 -39 -248
49 -200 247 -314 437 -251 148 48 237 171 237 325 0 134 -73 248 -196 306 -56
26 -75 30 -147 29 -54 0 -97 -6 -126 -18z"/>
</g>
</svg>
